HIERARCHY
ROOT Hips
{
	OFFSET 0.000000 0.000000 0.000000
	CHANNELS 6 Xposition Yposition Zposition Zrotation Yrotation Xrotation 
	JOINT LHipJoint
	{
		OFFSET 0.000000 0.000000 0.000000
		CHANNELS 3 Zrotation Yrotation Xrotation
		JOINT LeftUpLeg
		{
			OFFSET 1.363060 -1.794630 0.839290
			CHANNELS 3 Zrotation Yrotation Xrotation
			JOINT LeftLeg
			{
				OFFSET 2.448110 -6.726130 0.000000
				CHANNELS 3 Zrotation Yrotation Xrotation
				JOINT LeftFoot
				{
					OFFSET 2.562200 -7.039590 0.000000
					CHANNELS 3 Zrotation Yrotation Xrotation
					JOINT LeftToeBase
					{
						OFFSET 0.157640 -0.433110 2.322550
						CHANNELS 3 Zrotation Yrotation Xrotation
						End Site
						{
							OFFSET 0.000000 0.000000 0.000000
						}
					}
				}
			}
		}
	}
	JOINT RHipJoint
	{
		OFFSET 0.000000 0.000000 0.000000
		CHANNELS 3 Zrotation Yrotation Xrotation
		JOINT RightUpLeg
		{
			OFFSET -1.305520 -1.794630 0.839290
			CHANNELS 3 Zrotation Yrotation Xrotation
			JOINT RightLeg
			{
				OFFSET -2.542530 -6.985550 0.000000
				CHANNELS 3 Zrotation Yrotation Xrotation
				JOINT RightFoot
				{
					OFFSET -2.568260 -7.056230 0.000000
					CHANNELS 3 Zrotation Yrotation Xrotation
					JOINT RightToeBase
					{
						OFFSET -0.164730 -0.452590 2.363150
						CHANNELS 3 Zrotation Yrotation Xrotation
						End Site
						{
							OFFSET 0.000000 0.000000 0.000000
						}
					}
				}
			}
		}
	}
	JOINT LowerBack
	{
		OFFSET 0.000000 0.000000 0.000000
		CHANNELS 3 Zrotation Yrotation Xrotation
		JOINT Spine
		{
			OFFSET 0.028270 2.035590 -0.193380
			CHANNELS 3 Zrotation Yrotation Xrotation
			JOINT Spine1
			{
				OFFSET 0.056720 2.048850 -0.042750
				CHANNELS 3 Zrotation Yrotation Xrotation
				JOINT Neck
				{
					OFFSET 0.000000 0.000000 0.000000
					CHANNELS 3 Zrotation Yrotation Xrotation
					JOINT Neck1
					{
						OFFSET -0.054170 1.746240 0.172020
						CHANNELS 3 Zrotation Yrotation Xrotation
						JOINT Head
						{
							OFFSET 0.104070 1.761360 -0.123970
							CHANNELS 3 Zrotation Yrotation Xrotation
							End Site
							{
								OFFSET 0.000000 0.000000 0.000000
							}
						}
					}
				}
				JOINT LeftShoulder
				{
					OFFSET 0.000000 0.000000 0.000000
					CHANNELS 3 Zrotation Yrotation Xrotation
					JOINT LeftArm
					{
						OFFSET 3.362410 1.200890 -0.311210
						CHANNELS 3 Zrotation Yrotation Xrotation
						JOINT LeftForeArm
						{
							OFFSET 4.983000 -0.000000 -0.000000
							CHANNELS 3 Zrotation Yrotation Xrotation
							JOINT LeftHand
							{
								OFFSET 3.483560 -0.000000 -0.000000
								CHANNELS 3 Zrotation Yrotation Xrotation
								JOINT LeftFingerBase
								{
									OFFSET 0.000000 0.000000 0.000000
									CHANNELS 3 Zrotation Yrotation Xrotation
									JOINT LeftHandIndex1
									{
										OFFSET 0.715260 -0.000000 -0.000000
										CHANNELS 3 Zrotation Yrotation Xrotation
										End Site
										{
											OFFSET 0.000000 0.000000 0.000000
										}
									}
								}
								JOINT LThumb
								{
									OFFSET 0.000000 0.000000 0.000000
									CHANNELS 3 Zrotation Yrotation Xrotation
									End Site
									{
										OFFSET 0.000000 0.000000 0.000000
									}
								}
							}
						}
					}
				}
				JOINT RightShoulder
				{
					OFFSET 0.000000 0.000000 0.000000
					CHANNELS 3 Zrotation Yrotation Xrotation
					JOINT RightArm
					{
						OFFSET -3.136600 1.374050 -0.404650
						CHANNELS 3 Zrotation Yrotation Xrotation
						JOINT RightForeArm
						{
							OFFSET -5.241900 -0.000000 -0.000000
							CHANNELS 3 Zrotation Yrotation Xrotation
							JOINT RightHand
							{
								OFFSET -3.444170 -0.000000 -0.000000
								CHANNELS 3 Zrotation Yrotation Xrotation
								JOINT RightFingerBase
								{
									OFFSET 0.000000 0.000000 0.000000
									CHANNELS 3 Zrotation Yrotation Xrotation
									JOINT RightHandIndex1
									{
										OFFSET -0.622530 -0.000000 -0.000000
										CHANNELS 3 Zrotation Yrotation Xrotation
										End Site
										{
											OFFSET 0.000000 0.000000 0.000000
										}
									}
								}
								JOINT RThumb
								{
									OFFSET 0.000000 0.000000 0.000000
									CHANNELS 3 Zrotation Yrotation Xrotation
									End Site
									{
										OFFSET 0.000000 0.000000 0.000000
									}
								}
							}
						}
					}
				}
			}
		}
	}
}
MOTION
Frames: 6
Frame Time: 0.008333
1.741758 17.231550 -2.102555 -155.455526 74.183799 -120.603401 -13.945204 0.564652 -0.544226 -11.707101 -4.936807 -15.588311 -0.450867 -0.043443 17.921841 2.108062 13.441585 -3.419508 1.113600 -0.000000 -19.984200 5.066534 -0.262911 2.496501 5.893138 7.896070 -58.345507 3.754038 -0.772394 16.896156 0.476175 0.581955 9.916113 -0.774400 0.000000 -68.981800 9.888654 -4.258634 2.260673 2.212024 -4.735630 -2.201078 -2.913322 -4.857510 1.501495 0.964879 -16.316925 -2.373058 -2.590673 -0.251658 1.135395 0.000000 0.000000 0.000000 9.189439 4.774375 -3.507173 -65.568108 -28.117269 2.256651 -178.982608 -61.119243 179.863463 12.197761 -3.593704 -0.481083 -0.393165 0.804255 0.000000 0.000000 0.000000 0.000000 0.000000 0.000000 0.000000 -0.084457 -17.078836 0.190321 57.304506 -38.766980 18.475316 0.743595 74.088586 0.004636 1.682915 7.876743 0.117703 0.004249 -0.118749 -0.000000 0.000000 0.000000 0.000000 0.000000 0.000000 0.000000 
2.013404 17.248290 -2.170353 -154.826000 74.275778 -120.106102 -14.061127 0.712503 -0.791211 -11.981342 -3.882115 -14.833651 -0.398388 0.053141 18.790925 2.191929 14.200473 -2.680545 1.355400 -0.000000 -18.519600 5.006473 -0.343998 2.728012 6.479656 7.951031 -58.145298 4.236307 -0.383938 12.815591 1.016578 2.868476 12.907679 0.071901 0.000000 -70.405899 10.050099 -4.353029 2.257117 2.295466 -4.832761 -2.242887 -2.751449 -4.963717 1.417245 0.725413 -16.474563 -2.423093 -2.432994 -0.240348 1.123828 0.000000 0.000000 0.000000 9.525255 4.649958 -3.477686 -65.647803 -26.844189 2.586746 -179.087211 -61.436922 179.862350 12.373225 -3.320233 -0.455414 -0.391817 0.788536 0.000000 0.000000 0.000000 0.000000 0.000000 0.000000 0.000000 -1.045918 -16.962598 0.210074 57.994018 -39.889948 17.039060 0.642873 76.247112 0.004676 2.207651 7.905397 0.155762 -0.005412 -0.128519 -0.000000 0.000000 0.000000 0.000000 0.000000 0.000000 0.000000 
2.284315 17.252390 -2.235875 -154.198673 74.434353 -119.735230 -14.144092 0.880800 -1.072065 -12.354882 -2.699147 -14.128191 -0.364445 0.175466 20.142639 2.275289 14.897520 -2.177826 1.543700 0.000000 -17.543400 4.981853 -0.369273 2.869003 7.087197 7.916693 -57.954143 4.640550 -0.091989 9.628001 1.498070 5.306556 15.661683 1.192200 -0.000001 -71.357100 10.150759 -4.441837 2.349691 2.355474 -4.919977 -2.265352 -2.624327 -5.056936 1.316253 0.555194 -16.538975 -2.488776 -2.297001 -0.230201 1.108265 0.000000 0.000000 0.000000 9.799391 4.555491 -3.424658 -65.839744 -25.527027 3.089177 -179.159846 -61.859440 179.862790 12.435672 -3.094477 -0.430545 -0.388484 0.774093 0.000000 0.000000 0.000000 0.000000 0.000000 0.000000 0.000000 -1.833786 -16.747295 0.227346 58.749545 -40.969263 15.439113 0.540644 78.397824 0.004794 2.618562 7.950443 0.186425 -0.014191 -0.139404 -0.000000 0.000000 0.000000 0.000000 0.000000 0.000000 0.000000 
2.554035 17.244172 -2.299679 -153.506826 74.639496 -119.408983 -14.207601 1.062270 -1.390719 -12.770056 -1.372116 -13.490297 -0.343411 0.325172 21.956255 2.354540 15.518392 -1.887346 1.673500 0.000000 -17.005100 4.977198 -0.366306 2.945775 7.680347 7.879049 -57.763749 4.954571 0.105832 7.296896 1.892430 7.722238 18.088719 2.477300 0.000000 -72.050600 10.213881 -4.522692 2.527141 2.396048 -4.996131 -2.270606 -2.537503 -5.136095 1.200347 0.466589 -16.519172 -2.570219 -2.186874 -0.221528 1.088645 0.000000 0.000000 0.000000 10.010802 4.489370 -3.348768 -66.138401 -24.176940 3.735611 -179.201319 -62.386477 179.864692 12.387757 -2.917733 -0.407572 -0.383296 0.760942 0.000000 0.000000 0.000000 0.000000 0.000000 0.000000 0.000000 -2.422735 -16.449633 0.239227 59.536622 -41.966370 13.714249 0.437929 80.540661 0.004949 2.891121 8.018386 0.208299 -0.021617 -0.151594 -0.000000 0.000000 0.000000 0.000000 0.000000 0.000000 0.000000 
2.822485 17.223758 -2.361767 -152.742321 74.879140 -119.099671 -14.259035 1.252193 -1.746586 -13.186057 0.085795 -12.924035 -0.329195 0.502472 24.187114 2.430587 16.079071 -1.778864 1.748401 0.000000 -16.811200 4.986092 -0.354924 2.984586 8.192860 7.903599 -57.562830 5.170487 0.216215 5.770421 2.189442 9.931966 20.085722 3.777999 0.000000 -72.345700 10.248689 -4.595678 2.771278 2.419430 -5.062046 -2.261739 -2.492169 -5.202104 1.073342 0.466466 -16.432138 -2.666553 -2.103760 -0.214444 1.065224 0.000000 0.000000 0.000000 10.164379 4.448781 -3.252965 -66.538842 -22.798784 4.495157 -179.216248 -63.020030 179.867907 12.238578 -2.784038 -0.386395 -0.376358 0.748746 0.000000 0.000000 0.000000 0.000000 0.000000 0.000000 0.000000 -2.805333 -16.093562 0.243064 60.324430 -42.841106 11.922271 0.336373 82.665334 0.005089 3.006065 8.118103 0.219884 -0.027258 -0.165203 -0.000000 0.000000 0.000000 0.000000 0.000000 0.000000 0.000000 
3.089805 17.191113 -2.422559 -151.889107 75.129897 -118.767656 -14.310124 1.444145 -2.137133 -13.553071 1.662898 -12.441645 -0.315454 0.706958 26.790472 2.504393 16.595498 -1.827657 1.772500 -0.000000 -16.850200 5.001952 -0.352229 3.017496 8.544027 8.065729 -57.318512 5.283014 0.255816 4.922250 2.385628 11.702087 21.635064 4.908000 0.000000 -72.439100 10.272451 -4.661264 3.055450 2.430561 -5.119171 -2.243742 -2.486719 -5.256723 0.939608 0.553314 -16.296407 -2.775084 -2.046646 -0.208941 1.038789 0.000000 0.000000 0.000000 10.260573 4.426191 -3.140265 -67.036782 -21.390272 5.332210 -179.210879 -63.762515 179.872263 12.000604 -2.680271 -0.366116 -0.367806 0.736923 0.000000 0.000000 0.000000 0.000000 0.000000 0.000000 0.000000 -2.993223 -15.702543 0.237961 61.087904 -43.557348 10.121707 0.238193 84.754210 0.005132 2.964478 8.252770 0.221080 -0.030933 -0.180151 -0.000000 0.000000 0.000000 0.000000 0.000000 0.000000 0.000000 
